<?xml version="1.0" encoding="utf-8"?>
<svg xmlns="http://www.w3.org/2000/svg" viewBox="0 0 512 512" fill="url(#instagram-gradient)">
  <defs>
    <linearGradient id="instagram-gradient" x1="0%" y1="100%" x2="100%" y2="0%">
      <stop offset="0%" style="stop-color:#FFDC80" />
      <stop offset="10%" style="stop-color:#FCAF45" />
      <stop offset="50%" style="stop-color:#F77737" />
      <stop offset="75%" style="stop-color:#F56040" />
      <stop offset="80%" style="stop-color:#FD1D1D" />
      <stop offset="85%" style="stop-color:#E1306C" />
      <stop offset="100%" style="stop-color:#C13584" />
    </linearGradient>
  </defs>
  <path d="M256,49.5c67.3,0,75.2.3,101.8,1.5,24.6,1.1,37.9,5.2,46.8,8.7,11.8,4.6,20.2,10,29,18.8s14.3,17.2,18.8,29c3.4,8.9,7.6,22.2,8.7,46.8,1.2,26.6,1.5,34.5,1.5,101.8s-.3,75.2-1.5,101.8c-1.1,24.6-5.2,37.9-8.7,46.8-4.6,11.8-10,20.2-18.8,29s-17.2,14.3-29,18.8c-8.9,3.4-22.2,7.6-46.8,8.7-26.6,1.2-34.5,1.5-101.8,1.5s-75.2-.3-101.8-1.5c-24.6-1.1-37.9-5.2-46.8-8.7-11.8-4.6-20.2-10-29-18.8s-14.3-17.2-18.8-29c-3.4-8.9-7.6-22.2-8.7-46.8-1.2-26.6-1.5-34.5-1.5-101.8s.3-75.2,1.5-101.8c1.1-24.6,5.2-37.9,8.7-46.8,4.6-11.8,10-20.2,18.8-29s17.2-14.3,29-18.8c8.9-3.4,22.2-7.6,46.8-8.7,26.6-1.2,34.5-1.5,101.8-1.5m0-45.4c-68.4,0-77,.3-103.9,1.5C125.3,6.8,107,11.1,91,17.3c-16.6,6.4-30.6,15.1-44.6,29.1-14,14-22.6,28.1-29.1,44.6-6.2,16-10.5,34.3-11.7,61.2C4.4,179,4.1,187.6,4.1,256s.3,77,1.5,103.9c1.2,26.8,5.5,45.1,11.7,61.2,6.4,16.6,15.1,30.6,29.1,44.6,14,14,28.1,22.6,44.6,29.1,16,6.2,34.3,10.5,61.2,11.7,26.9,1.2,35.4,1.5,103.9,1.5s77-.3,103.9-1.5c26.8-1.2,45.1-5.5,61.2-11.7,16.6-6.4,30.6-15.1,44.6-29.1,14-14,22.6-28.1,29.1-44.6,6.2-16,10.5-34.3,11.7-61.2,1.2-26.9,1.5-35.4,1.5-103.9s-.3-77-1.5-103.9c-1.2-26.8-5.5-45.1-11.7-61.2-6.4-16.6-15.1-30.6-29.1-44.6-14-14-28.1-22.6-44.6-29.1-16-6.2-34.3-10.5-61.2-11.7C333,4.4,324.4,4.1,256,4.1Z"/>
  <path d="M256,126.6A129.4,129.4,0,1,0,385.4,256,129.4,129.4,0,0,0,256,126.6Zm0,213.4A84,84,0,1,1,340,256,84,84,0,0,1,256,340Z"/>
  <circle cx="390.5" cy="121.5" r="30.2"/>
</svg> 